<mxfile host="app.diagrams.net" modified="2024-04-14T10:42:07.157Z" agent="Mozilla/5.0 (Windows NT 10.0; Win64; x64) AppleWebKit/537.36 (KHTML, like Gecko) Chrome/123.0.0.0 Safari/537.36" etag="BBZUYAeOHlgxWBKc6KvN" version="24.2.3" type="device">
  <diagram name="Page-1" id="MjsJwB0A6UCAAo-0z1m6">
    <mxGraphModel dx="2284" dy="738" grid="1" gridSize="10" guides="1" tooltips="1" connect="1" arrows="1" fold="1" page="1" pageScale="1" pageWidth="850" pageHeight="1100" math="0" shadow="0">
      <root>
        <mxCell id="0" />
        <mxCell id="1" parent="0" />
        <mxCell id="C1IyReGumWcxW7wr3i9b-5" value="" style="group" parent="1" vertex="1" connectable="0">
          <mxGeometry x="-170" y="40" width="20" height="570" as="geometry" />
        </mxCell>
        <mxCell id="C1IyReGumWcxW7wr3i9b-4" value="" style="shape=umlLifeline;perimeter=lifelinePerimeter;whiteSpace=wrap;html=1;container=1;dropTarget=0;collapsible=0;recursiveResize=0;outlineConnect=0;portConstraint=eastwest;newEdgeStyle={&quot;curved&quot;:0,&quot;rounded&quot;:0};participant=umlActor;" parent="C1IyReGumWcxW7wr3i9b-5" vertex="1">
          <mxGeometry width="20" height="570" as="geometry" />
        </mxCell>
        <mxCell id="C1IyReGumWcxW7wr3i9b-1" value="Actor" style="shape=umlActor;verticalLabelPosition=bottom;verticalAlign=top;html=1;outlineConnect=0;" parent="C1IyReGumWcxW7wr3i9b-5" vertex="1">
          <mxGeometry x="2.5" y="558" width="15" height="40" as="geometry" />
        </mxCell>
        <mxCell id="C1IyReGumWcxW7wr3i9b-9" value="" style="group" parent="1" vertex="1" connectable="0">
          <mxGeometry x="200" y="40" width="100" height="570" as="geometry" />
        </mxCell>
        <mxCell id="C1IyReGumWcxW7wr3i9b-2" value="BankAccounts" style="shape=umlLifeline;perimeter=lifelinePerimeter;whiteSpace=wrap;html=1;container=1;dropTarget=0;collapsible=0;recursiveResize=0;outlineConnect=0;portConstraint=eastwest;newEdgeStyle={&quot;edgeStyle&quot;:&quot;elbowEdgeStyle&quot;,&quot;elbow&quot;:&quot;vertical&quot;,&quot;curved&quot;:0,&quot;rounded&quot;:0};fillColor=#99CCFF;" parent="C1IyReGumWcxW7wr3i9b-9" vertex="1">
          <mxGeometry width="100" height="570" as="geometry" />
        </mxCell>
        <mxCell id="C1IyReGumWcxW7wr3i9b-26" value="" style="rounded=0;whiteSpace=wrap;html=1;fillColor=#99CCFF;" parent="C1IyReGumWcxW7wr3i9b-9" vertex="1">
          <mxGeometry x="40" y="50" width="20" height="490" as="geometry" />
        </mxCell>
        <mxCell id="C1IyReGumWcxW7wr3i9b-39" value="" style="rounded=0;whiteSpace=wrap;html=1;fillColor=#99CCFF;" parent="C1IyReGumWcxW7wr3i9b-9" vertex="1">
          <mxGeometry x="50" y="60" width="20" height="100" as="geometry" />
        </mxCell>
        <mxCell id="C1IyReGumWcxW7wr3i9b-48" value="&lt;span style=&quot;color: rgba(0, 0, 0, 0); font-family: monospace; font-size: 0px; text-align: start; text-wrap: nowrap;&quot;&gt;%3CmxGraphModel%3E%3Croot%3E%3CmxCell%20id%3D%220%22%2F%3E%3CmxCell%20id%3D%221%22%20parent%3D%220%22%2F%3E%3CmxCell%20id%3D%222%22%20value%3D%22%22%20style%3D%22rounded%3D0%3BwhiteSpace%3Dwrap%3Bhtml%3D1%3B%22%20vertex%3D%221%22%20parent%3D%221%22%3E%3CmxGeometry%20x%3D%22660%22%20y%3D%22110%22%20width%3D%2220%22%20height%3D%2280%22%20as%3D%22geometry%22%2F%3E%3C%2FmxCell%3E%3C%2Froot%3E%3C%2FmxGraphModel%3E&lt;/span&gt;&lt;span style=&quot;color: rgba(0, 0, 0, 0); font-family: monospace; font-size: 0px; text-align: start; text-wrap: nowrap;&quot;&gt;%3CmxGraphModel%3E%3Croot%3E%3CmxCell%20id%3D%220%22%2F%3E%3CmxCell%20id%3D%221%22%20parent%3D%220%22%2F%3E%3CmxCell%20id%3D%222%22%20value%3D%22%22%20style%3D%22rounded%3D0%3BwhiteSpace%3Dwrap%3Bhtml%3D1%3B%22%20vertex%3D%221%22%20parent%3D%221%22%3E%3CmxGeometry%20x%3D%22660%22%20y%3D%22110%22%20width%3D%2220%22%20height%3D%2280%22%20as%3D%22geometry%22%2F%3E%3C%2FmxCell%3E%3C%2Froot%3E%3C%2FmxGraphModel%3E&lt;/span&gt;" style="rounded=0;whiteSpace=wrap;html=1;fillColor=#99CCFF;" parent="C1IyReGumWcxW7wr3i9b-9" vertex="1">
          <mxGeometry x="50" y="180" width="20" height="80" as="geometry" />
        </mxCell>
        <mxCell id="C1IyReGumWcxW7wr3i9b-59" value="" style="rounded=0;whiteSpace=wrap;html=1;fillColor=#99CCFF;" parent="C1IyReGumWcxW7wr3i9b-9" vertex="1">
          <mxGeometry x="50" y="280" width="20" height="40" as="geometry" />
        </mxCell>
        <mxCell id="C1IyReGumWcxW7wr3i9b-75" value="" style="rounded=0;whiteSpace=wrap;html=1;fillColor=#99CCFF;" parent="C1IyReGumWcxW7wr3i9b-9" vertex="1">
          <mxGeometry x="50" y="440" width="20" height="40" as="geometry" />
        </mxCell>
        <mxCell id="C1IyReGumWcxW7wr3i9b-10" value="" style="group" parent="1" vertex="1" connectable="0">
          <mxGeometry x="400" y="40" width="100" height="610" as="geometry" />
        </mxCell>
        <mxCell id="C1IyReGumWcxW7wr3i9b-11" value="Bank" style="shape=umlLifeline;perimeter=lifelinePerimeter;whiteSpace=wrap;html=1;container=1;dropTarget=0;collapsible=0;recursiveResize=0;outlineConnect=0;portConstraint=eastwest;newEdgeStyle={&quot;edgeStyle&quot;:&quot;elbowEdgeStyle&quot;,&quot;elbow&quot;:&quot;vertical&quot;,&quot;curved&quot;:0,&quot;rounded&quot;:0};fillColor=#99CCFF;" parent="C1IyReGumWcxW7wr3i9b-10" vertex="1">
          <mxGeometry width="100" height="574.8076923076924" as="geometry" />
        </mxCell>
        <mxCell id="C1IyReGumWcxW7wr3i9b-27" value="" style="rounded=0;whiteSpace=wrap;html=1;fillColor=#99CCFF;" parent="C1IyReGumWcxW7wr3i9b-10" vertex="1">
          <mxGeometry x="40" y="60" width="20" height="100" as="geometry" />
        </mxCell>
        <mxCell id="C1IyReGumWcxW7wr3i9b-13" value="" style="group" parent="1" vertex="1" connectable="0">
          <mxGeometry x="620" y="40" width="140" height="570" as="geometry" />
        </mxCell>
        <mxCell id="C1IyReGumWcxW7wr3i9b-14" value="Database" style="shape=umlLifeline;perimeter=lifelinePerimeter;whiteSpace=wrap;html=1;container=1;dropTarget=0;collapsible=0;recursiveResize=0;outlineConnect=0;portConstraint=eastwest;newEdgeStyle={&quot;edgeStyle&quot;:&quot;elbowEdgeStyle&quot;,&quot;elbow&quot;:&quot;vertical&quot;,&quot;curved&quot;:0,&quot;rounded&quot;:0};fillColor=#99CCFF;" parent="C1IyReGumWcxW7wr3i9b-13" vertex="1">
          <mxGeometry width="100" height="570" as="geometry" />
        </mxCell>
        <mxCell id="lJHCTL2yDhDO9OFitbf4-1" value="" style="rounded=0;whiteSpace=wrap;html=1;fillColor=#99CCFF;" vertex="1" parent="C1IyReGumWcxW7wr3i9b-13">
          <mxGeometry x="40" y="50" width="20" height="490" as="geometry" />
        </mxCell>
        <mxCell id="C1IyReGumWcxW7wr3i9b-31" value="&lt;span style=&quot;color: rgba(0, 0, 0, 0); font-family: monospace; font-size: 0px; text-align: start; text-wrap: nowrap;&quot;&gt;%3CmxGraphModel%3E%3Croot%3E%3CmxCell%20id%3D%220%22%2F%3E%3CmxCell%20id%3D%221%22%20parent%3D%220%22%2F%3E%3CmxCell%20id%3D%222%22%20value%3D%22%22%20style%3D%22rounded%3D0%3BwhiteSpace%3Dwrap%3Bhtml%3D1%3B%22%20vertex%3D%221%22%20parent%3D%221%22%3E%3CmxGeometry%20x%3D%22660%22%20y%3D%22110%22%20width%3D%2220%22%20height%3D%2280%22%20as%3D%22geometry%22%2F%3E%3C%2FmxCell%3E%3C%2Froot%3E%3C%2FmxGraphModel%3E&lt;/span&gt;&lt;span style=&quot;color: rgba(0, 0, 0, 0); font-family: monospace; font-size: 0px; text-align: start; text-wrap: nowrap;&quot;&gt;%3CmxGraphModel%3E%3Croot%3E%3CmxCell%20id%3D%220%22%2F%3E%3CmxCell%20id%3D%221%22%20parent%3D%220%22%2F%3E%3CmxCell%20id%3D%222%22%20value%3D%22%22%20style%3D%22rounded%3D0%3BwhiteSpace%3Dwrap%3Bhtml%3D1%3B%22%20vertex%3D%221%22%20parent%3D%221%22%3E%3CmxGeometry%20x%3D%22660%22%20y%3D%22110%22%20width%3D%2220%22%20height%3D%2280%22%20as%3D%22geometry%22%2F%3E%3C%2FmxCell%3E%3C%2Froot%3E%3C%2FmxGraphModel%3E&lt;/span&gt;" style="rounded=0;whiteSpace=wrap;html=1;fillColor=#99CCFF;" parent="C1IyReGumWcxW7wr3i9b-13" vertex="1">
          <mxGeometry x="30" y="70" width="20" height="80" as="geometry" />
        </mxCell>
        <mxCell id="C1IyReGumWcxW7wr3i9b-45" value="&lt;span style=&quot;color: rgba(0, 0, 0, 0); font-family: monospace; font-size: 0px; text-align: start; text-wrap: nowrap;&quot;&gt;%3CmxGraphModel%3E%3Croot%3E%3CmxCell%20id%3D%220%22%2F%3E%3CmxCell%20id%3D%221%22%20parent%3D%220%22%2F%3E%3CmxCell%20id%3D%222%22%20value%3D%22%22%20style%3D%22group%22%20vertex%3D%221%22%20connectable%3D%220%22%20parent%3D%221%22%3E%3CmxGeometry%20x%3D%22620%22%20y%3D%2240%22%20width%3D%22140%22%20height%3D%22520%22%20as%3D%22geometry%22%2F%3E%3C%2FmxCell%3E%3CmxCell%20id%3D%223%22%20value%3D%22Database%22%20style%3D%22shape%3DumlLifeline%3Bperimeter%3DlifelinePerimeter%3BwhiteSpace%3Dwrap%3Bhtml%3D1%3Bcontainer%3D1%3BdropTarget%3D0%3Bcollapsible%3D0%3BrecursiveResize%3D0%3BoutlineConnect%3D0%3BportConstraint%3Deastwest%3BnewEdgeStyle%3D%7B%26quot%3BedgeStyle%26quot%3B%3A%26quot%3BelbowEdgeStyle%26quot%3B%2C%26quot%3Belbow%26quot%3B%3A%26quot%3Bvertical%26quot%3B%2C%26quot%3Bcurved%26quot%3B%3A0%2C%26quot%3Brounded%26quot%3B%3A0%7D%3B%22%20vertex%3D%221%22%20parent%3D%222%22%3E%3CmxGeometry%20width%3D%22100%22%20height%3D%22490%22%20as%3D%22geometry%22%2F%3E%3C%2FmxCell%3E%3CmxCell%20id%3D%224%22%20value%3D%22%22%20style%3D%22rounded%3D0%3BwhiteSpace%3Dwrap%3Bhtml%3D1%3B%22%20vertex%3D%221%22%20parent%3D%222%22%3E%3CmxGeometry%20y%3D%22480%22%20width%3D%22100%22%20height%3D%2240%22%20as%3D%22geometry%22%2F%3E%3C%2FmxCell%3E%3CmxCell%20id%3D%225%22%20value%3D%22%26lt%3Bspan%20style%3D%26quot%3Bcolor%3A%20rgb(0%2C%200%2C%200)%3B%20font-family%3A%20Helvetica%3B%20font-size%3A%2012px%3B%20font-style%3A%20normal%3B%20font-variant-ligatures%3A%20normal%3B%20font-variant-caps%3A%20normal%3B%20font-weight%3A%20400%3B%20letter-spacing%3A%20normal%3B%20orphans%3A%202%3B%20text-align%3A%20center%3B%20text-indent%3A%200px%3B%20text-transform%3A%20none%3B%20widows%3A%202%3B%20word-spacing%3A%200px%3B%20-webkit-text-stroke-width%3A%200px%3B%20white-space%3A%20normal%3B%20background-color%3A%20rgb(251%2C%20251%2C%20251)%3B%20text-decoration-thickness%3A%20initial%3B%20text-decoration-style%3A%20initial%3B%20text-decoration-color%3A%20initial%3B%20display%3A%20inline%20!important%3B%20float%3A%20none%3B%26quot%3B%26gt%3BDatabase%26lt%3B%2Fspan%26gt%3B%22%20style%3D%22text%3BwhiteSpace%3Dwrap%3Bhtml%3D1%3B%22%20vertex%3D%221%22%20parent%3D%222%22%3E%3CmxGeometry%20x%3D%2225%22%20y%3D%22490%22%20width%3D%2250%22%20height%3D%2220%22%20as%3D%22geometry%22%2F%3E%3C%2FmxCell%3E%3CmxCell%20id%3D%226%22%20value%3D%22%26lt%3Bspan%20style%3D%26quot%3Bcolor%3A%20rgba(0%2C%200%2C%200%2C%200)%3B%20font-family%3A%20monospace%3B%20font-size%3A%200px%3B%20text-align%3A%20start%3B%20text-wrap%3A%20nowrap%3B%26quot%3B%26gt%3B%253CmxGraphModel%253E%253Croot%253E%253CmxCell%2520id%253D%25220%2522%252F%253E%253CmxCell%2520id%253D%25221%2522%2520parent%253D%25220%2522%252F%253E%253CmxCell%2520id%253D%25222%2522%2520value%253D%2522%2522%2520style%253D%2522rounded%253D0%253BwhiteSpace%253Dwrap%253Bhtml%253D1%253B%2522%2520vertex%253D%25221%2522%2520parent%253D%25221%2522%253E%253CmxGeometry%2520x%253D%2522660%2522%2520y%253D%2522110%2522%2520width%253D%252220%2522%2520height%253D%252280%2522%2520as%253D%2522geometry%2522%252F%253E%253C%252FmxCell%253E%253C%252Froot%253E%253C%252FmxGraphModel%253E%26lt%3B%2Fspan%26gt%3B%26lt%3Bspan%20style%3D%26quot%3Bcolor%3A%20rgba(0%2C%200%2C%200%2C%200)%3B%20font-family%3A%20monospace%3B%20font-size%3A%200px%3B%20text-align%3A%20start%3B%20text-wrap%3A%20nowrap%3B%26quot%3B%26gt%3B%253CmxGraphModel%253E%253Croot%253E%253CmxCell%2520id%253D%25220%2522%252F%253E%253CmxCell%2520id%253D%25221%2522%2520parent%253D%25220%2522%252F%253E%253CmxCell%2520id%253D%25222%2522%2520value%253D%2522%2522%2520style%253D%2522rounded%253D0%253BwhiteSpace%253Dwrap%253Bhtml%253D1%253B%2522%2520vertex%253D%25221%2522%2520parent%253D%25221%2522%253E%253CmxGeometry%2520x%253D%2522660%2522%2520y%253D%2522110%2522%2520width%253D%252220%2522%2520height%253D%252280%2522%2520as%253D%2522geometry%2522%252F%253E%253C%252FmxCell%253E%253C%252Froot%253E%253C%252FmxGraphModel%253E%26lt%3B%2Fspan%26gt%3B%22%20style%3D%22rounded%3D0%3BwhiteSpace%3Dwrap%3Bhtml%3D1%3B%22%20vertex%3D%221%22%20parent%3D%222%22%3E%3CmxGeometry%20x%3D%2240%22%20y%3D%2270%22%20width%3D%2220%22%20height%3D%2280%22%20as%3D%22geometry%22%2F%3E%3C%2FmxCell%3E%3CmxCell%20id%3D%227%22%20value%3D%22%22%20style%3D%22rounded%3D0%3BwhiteSpace%3Dwrap%3Bhtml%3D1%3B%22%20vertex%3D%221%22%20parent%3D%222%22%3E%3CmxGeometry%20x%3D%2240%22%20y%3D%22190%22%20width%3D%2220%22%20height%3D%2250%22%20as%3D%22geometry%22%2F%3E%3C%2FmxCell%3E%3C%2Froot%3E%3C%2FmxGraphModel%3E&lt;/span&gt;" style="rounded=0;whiteSpace=wrap;html=1;fillColor=#99CCFF;" parent="C1IyReGumWcxW7wr3i9b-13" vertex="1">
          <mxGeometry x="50" y="190" width="20" height="50" as="geometry" />
        </mxCell>
        <mxCell id="C1IyReGumWcxW7wr3i9b-57" value="" style="rounded=0;whiteSpace=wrap;html=1;fillColor=#99CCFF;" parent="C1IyReGumWcxW7wr3i9b-13" vertex="1">
          <mxGeometry x="30" y="280" width="20" height="40" as="geometry" />
        </mxCell>
        <mxCell id="C1IyReGumWcxW7wr3i9b-72" value="" style="rounded=0;whiteSpace=wrap;html=1;fillColor=#99CCFF;" parent="C1IyReGumWcxW7wr3i9b-13" vertex="1">
          <mxGeometry x="30" y="441" width="20" height="38" as="geometry" />
        </mxCell>
        <mxCell id="C1IyReGumWcxW7wr3i9b-16" value="" style="group" parent="1" vertex="1" connectable="0">
          <mxGeometry x="880" y="40" width="100" height="580" as="geometry" />
        </mxCell>
        <mxCell id="C1IyReGumWcxW7wr3i9b-17" value="UserProfile" style="shape=umlLifeline;perimeter=lifelinePerimeter;whiteSpace=wrap;html=1;container=1;dropTarget=0;collapsible=0;recursiveResize=0;outlineConnect=0;portConstraint=eastwest;newEdgeStyle={&quot;edgeStyle&quot;:&quot;elbowEdgeStyle&quot;,&quot;elbow&quot;:&quot;vertical&quot;,&quot;curved&quot;:0,&quot;rounded&quot;:0};fillColor=#99CCFF;" parent="C1IyReGumWcxW7wr3i9b-16" vertex="1">
          <mxGeometry width="100" height="580" as="geometry" />
        </mxCell>
        <mxCell id="C1IyReGumWcxW7wr3i9b-40" value="" style="rounded=0;whiteSpace=wrap;html=1;fillColor=#99CCFF;" parent="C1IyReGumWcxW7wr3i9b-16" vertex="1">
          <mxGeometry x="40" y="180" width="20" height="80" as="geometry" />
        </mxCell>
        <mxCell id="C1IyReGumWcxW7wr3i9b-41" value="" style="rounded=0;whiteSpace=wrap;html=1;fillColor=#99CCFF;" parent="C1IyReGumWcxW7wr3i9b-16" vertex="1">
          <mxGeometry x="30" y="190" width="20" height="50" as="geometry" />
        </mxCell>
        <mxCell id="C1IyReGumWcxW7wr3i9b-24" value="" style="edgeStyle=elbowEdgeStyle;fontSize=12;html=1;endArrow=blockThin;endFill=1;rounded=0;entryX=0;entryY=0;entryDx=0;entryDy=0;" parent="1" source="C1IyReGumWcxW7wr3i9b-4" target="C1IyReGumWcxW7wr3i9b-26" edge="1">
          <mxGeometry width="160" relative="1" as="geometry">
            <mxPoint x="-30.5" y="100" as="sourcePoint" />
            <mxPoint x="220" y="100" as="targetPoint" />
            <Array as="points">
              <mxPoint x="-60" y="90" />
            </Array>
          </mxGeometry>
        </mxCell>
        <mxCell id="C1IyReGumWcxW7wr3i9b-25" value="editBankAccount(accountId, accountNumber, bankName, userName)" style="edgeLabel;html=1;align=center;verticalAlign=middle;resizable=0;points=[];" parent="C1IyReGumWcxW7wr3i9b-24" vertex="1" connectable="0">
          <mxGeometry x="0.2845" y="-2" relative="1" as="geometry">
            <mxPoint x="-54" as="offset" />
          </mxGeometry>
        </mxCell>
        <mxCell id="C1IyReGumWcxW7wr3i9b-28" value="" style="edgeStyle=elbowEdgeStyle;fontSize=12;html=1;endArrow=blockThin;endFill=1;rounded=0;entryX=0;entryY=0;entryDx=0;entryDy=0;exitX=1;exitY=0;exitDx=0;exitDy=0;" parent="1" source="C1IyReGumWcxW7wr3i9b-39" target="C1IyReGumWcxW7wr3i9b-27" edge="1">
          <mxGeometry width="160" relative="1" as="geometry">
            <mxPoint x="290" y="100" as="sourcePoint" />
            <mxPoint x="510" y="230" as="targetPoint" />
          </mxGeometry>
        </mxCell>
        <mxCell id="C1IyReGumWcxW7wr3i9b-29" value="getBankByName(bankName)" style="edgeLabel;html=1;align=center;verticalAlign=middle;resizable=0;points=[];" parent="C1IyReGumWcxW7wr3i9b-28" vertex="1" connectable="0">
          <mxGeometry x="-0.1373" y="2" relative="1" as="geometry">
            <mxPoint x="7" as="offset" />
          </mxGeometry>
        </mxCell>
        <mxCell id="C1IyReGumWcxW7wr3i9b-30" value="" style="rounded=0;whiteSpace=wrap;html=1;fillColor=#99CCFF;" parent="1" vertex="1">
          <mxGeometry x="450" y="110" width="20" height="80" as="geometry" />
        </mxCell>
        <mxCell id="C1IyReGumWcxW7wr3i9b-32" value="" style="edgeStyle=elbowEdgeStyle;fontSize=12;html=1;endArrow=blockThin;endFill=1;rounded=0;exitX=1;exitY=0;exitDx=0;exitDy=0;entryX=0;entryY=0;entryDx=0;entryDy=0;" parent="1" source="C1IyReGumWcxW7wr3i9b-30" target="C1IyReGumWcxW7wr3i9b-31" edge="1">
          <mxGeometry width="160" relative="1" as="geometry">
            <mxPoint x="350" y="230" as="sourcePoint" />
            <mxPoint x="510" y="230" as="targetPoint" />
          </mxGeometry>
        </mxCell>
        <mxCell id="C1IyReGumWcxW7wr3i9b-33" value="query(&#39;SELECT * FROM banks )" style="edgeLabel;html=1;align=center;verticalAlign=middle;resizable=0;points=[];" parent="C1IyReGumWcxW7wr3i9b-32" vertex="1" connectable="0">
          <mxGeometry x="-0.1228" y="2" relative="1" as="geometry">
            <mxPoint x="4" as="offset" />
          </mxGeometry>
        </mxCell>
        <mxCell id="C1IyReGumWcxW7wr3i9b-34" value="return bank details" style="html=1;verticalAlign=bottom;endArrow=open;dashed=1;endSize=8;curved=0;rounded=0;exitX=0;exitY=1;exitDx=0;exitDy=0;entryX=1;entryY=1;entryDx=0;entryDy=0;" parent="1" source="C1IyReGumWcxW7wr3i9b-31" target="C1IyReGumWcxW7wr3i9b-30" edge="1">
          <mxGeometry relative="1" as="geometry">
            <mxPoint x="470" y="230" as="sourcePoint" />
            <mxPoint x="390" y="230" as="targetPoint" />
          </mxGeometry>
        </mxCell>
        <mxCell id="C1IyReGumWcxW7wr3i9b-35" value="return bank id" style="html=1;verticalAlign=bottom;endArrow=open;dashed=1;endSize=8;curved=0;rounded=0;exitX=0;exitY=1;exitDx=0;exitDy=0;entryX=1;entryY=1;entryDx=0;entryDy=0;" parent="1" source="C1IyReGumWcxW7wr3i9b-27" target="C1IyReGumWcxW7wr3i9b-39" edge="1">
          <mxGeometry relative="1" as="geometry">
            <mxPoint x="470" y="230" as="sourcePoint" />
            <mxPoint x="290" y="200" as="targetPoint" />
          </mxGeometry>
        </mxCell>
        <mxCell id="C1IyReGumWcxW7wr3i9b-36" value="" style="edgeStyle=elbowEdgeStyle;fontSize=12;html=1;endArrow=blockThin;endFill=1;rounded=0;entryX=0;entryY=0;entryDx=0;entryDy=0;exitX=1;exitY=0;exitDx=0;exitDy=0;" parent="1" source="C1IyReGumWcxW7wr3i9b-48" target="C1IyReGumWcxW7wr3i9b-40" edge="1">
          <mxGeometry width="160" relative="1" as="geometry">
            <mxPoint x="290" y="220" as="sourcePoint" />
            <mxPoint x="900" y="220" as="targetPoint" />
            <Array as="points">
              <mxPoint x="730" y="220" />
            </Array>
          </mxGeometry>
        </mxCell>
        <mxCell id="C1IyReGumWcxW7wr3i9b-37" value="getUserByName(userName)" style="edgeLabel;html=1;align=center;verticalAlign=middle;resizable=0;points=[];" parent="C1IyReGumWcxW7wr3i9b-36" vertex="1" connectable="0">
          <mxGeometry x="0.4598" y="1" relative="1" as="geometry">
            <mxPoint x="-187" as="offset" />
          </mxGeometry>
        </mxCell>
        <mxCell id="C1IyReGumWcxW7wr3i9b-42" value="" style="edgeStyle=elbowEdgeStyle;fontSize=12;html=1;endArrow=blockThin;endFill=1;rounded=0;exitX=0;exitY=0;exitDx=0;exitDy=0;entryX=1;entryY=0;entryDx=0;entryDy=0;" parent="1" source="C1IyReGumWcxW7wr3i9b-41" target="C1IyReGumWcxW7wr3i9b-45" edge="1">
          <mxGeometry width="160" relative="1" as="geometry">
            <mxPoint x="520" y="250" as="sourcePoint" />
            <mxPoint x="710" y="230" as="targetPoint" />
          </mxGeometry>
        </mxCell>
        <mxCell id="C1IyReGumWcxW7wr3i9b-43" value="SELECT * FROM user_profiles" style="edgeLabel;html=1;align=center;verticalAlign=middle;resizable=0;points=[];" parent="C1IyReGumWcxW7wr3i9b-42" vertex="1" connectable="0">
          <mxGeometry x="-0.0967" y="-1" relative="1" as="geometry">
            <mxPoint x="-10" as="offset" />
          </mxGeometry>
        </mxCell>
        <mxCell id="C1IyReGumWcxW7wr3i9b-46" value="return User Details" style="html=1;verticalAlign=bottom;endArrow=open;dashed=1;endSize=8;curved=0;rounded=0;exitX=1;exitY=1;exitDx=0;exitDy=0;entryX=0;entryY=1;entryDx=0;entryDy=0;" parent="1" source="C1IyReGumWcxW7wr3i9b-45" target="C1IyReGumWcxW7wr3i9b-41" edge="1">
          <mxGeometry relative="1" as="geometry">
            <mxPoint x="640" y="250" as="sourcePoint" />
            <mxPoint x="560" y="250" as="targetPoint" />
          </mxGeometry>
        </mxCell>
        <mxCell id="C1IyReGumWcxW7wr3i9b-47" value="return user id" style="html=1;verticalAlign=bottom;endArrow=open;dashed=1;endSize=8;curved=0;rounded=0;exitX=0;exitY=1;exitDx=0;exitDy=0;entryX=1;entryY=1;entryDx=0;entryDy=0;" parent="1" edge="1">
          <mxGeometry relative="1" as="geometry">
            <mxPoint x="918" y="300" as="sourcePoint" />
            <mxPoint x="268" y="300" as="targetPoint" />
          </mxGeometry>
        </mxCell>
        <mxCell id="C1IyReGumWcxW7wr3i9b-49" value="" style="edgeStyle=elbowEdgeStyle;fontSize=12;html=1;endArrow=blockThin;endFill=1;rounded=0;entryX=0;entryY=0;entryDx=0;entryDy=0;exitX=1;exitY=0;exitDx=0;exitDy=0;" parent="1" source="C1IyReGumWcxW7wr3i9b-59" target="C1IyReGumWcxW7wr3i9b-57" edge="1">
          <mxGeometry width="160" relative="1" as="geometry">
            <mxPoint x="290" y="320" as="sourcePoint" />
            <mxPoint x="640" y="320" as="targetPoint" />
            <Array as="points" />
          </mxGeometry>
        </mxCell>
        <mxCell id="C1IyReGumWcxW7wr3i9b-50" value="Check for bank existence -&amp;nbsp;SELECT * FROM bank_accounts WHERE id = ?" style="edgeLabel;html=1;align=center;verticalAlign=middle;resizable=0;points=[];" parent="C1IyReGumWcxW7wr3i9b-49" vertex="1" connectable="0">
          <mxGeometry x="0.107" y="-2" relative="1" as="geometry">
            <mxPoint x="-27" as="offset" />
          </mxGeometry>
        </mxCell>
        <mxCell id="C1IyReGumWcxW7wr3i9b-58" value="&lt;div style=&quot;&quot;&gt;return Answer&lt;/div&gt;" style="html=1;verticalAlign=bottom;endArrow=open;dashed=1;endSize=8;curved=0;rounded=0;exitX=0;exitY=1;exitDx=0;exitDy=0;entryX=1;entryY=1;entryDx=0;entryDy=0;align=left;" parent="1" source="C1IyReGumWcxW7wr3i9b-57" target="C1IyReGumWcxW7wr3i9b-59" edge="1">
          <mxGeometry relative="1" as="geometry">
            <mxPoint x="640" y="250" as="sourcePoint" />
            <mxPoint x="300" y="360" as="targetPoint" />
          </mxGeometry>
        </mxCell>
        <mxCell id="C1IyReGumWcxW7wr3i9b-60" value="alt" style="shape=umlFrame;whiteSpace=wrap;html=1;pointerEvents=0;width=40;height=20;fillColor=#dae8fc;strokeColor=#6c8ebf;" parent="1" vertex="1">
          <mxGeometry x="-180" y="400" width="870" height="160" as="geometry" />
        </mxCell>
        <mxCell id="C1IyReGumWcxW7wr3i9b-61" value="" style="group;fillColor=#99CCFF;" parent="1" vertex="1" connectable="0">
          <mxGeometry x="200" y="600" width="100" height="40" as="geometry" />
        </mxCell>
        <mxCell id="C1IyReGumWcxW7wr3i9b-8" value="" style="rounded=0;whiteSpace=wrap;html=1;fillColor=#99CCFF;" parent="C1IyReGumWcxW7wr3i9b-61" vertex="1">
          <mxGeometry width="100" height="40" as="geometry" />
        </mxCell>
        <mxCell id="C1IyReGumWcxW7wr3i9b-19" value="&lt;span style=&quot;color: rgb(0, 0, 0); font-family: Helvetica; font-size: 12px; font-style: normal; font-variant-ligatures: normal; font-variant-caps: normal; font-weight: 400; letter-spacing: normal; orphans: 2; text-align: center; text-indent: 0px; text-transform: none; widows: 2; word-spacing: 0px; -webkit-text-stroke-width: 0px; white-space: normal; text-decoration-thickness: initial; text-decoration-style: initial; text-decoration-color: initial; float: none; display: inline !important; background-color: rgb(153, 204, 255);&quot;&gt;BankAccounts&lt;/span&gt;" style="text;whiteSpace=wrap;html=1;fillColor=#99CCFF;" parent="C1IyReGumWcxW7wr3i9b-61" vertex="1">
          <mxGeometry x="10" y="10" width="80" height="20" as="geometry" />
        </mxCell>
        <mxCell id="C1IyReGumWcxW7wr3i9b-12" value="" style="rounded=0;whiteSpace=wrap;html=1;fillColor=#99CCFF;" parent="1" vertex="1">
          <mxGeometry x="400" y="600" width="100" height="40" as="geometry" />
        </mxCell>
        <mxCell id="C1IyReGumWcxW7wr3i9b-20" value="&lt;span style=&quot;color: rgb(0, 0, 0); font-family: Helvetica; font-size: 12px; font-style: normal; font-variant-ligatures: normal; font-variant-caps: normal; font-weight: 400; letter-spacing: normal; orphans: 2; text-align: center; text-indent: 0px; text-transform: none; widows: 2; word-spacing: 0px; -webkit-text-stroke-width: 0px; white-space: normal; text-decoration-thickness: initial; text-decoration-style: initial; text-decoration-color: initial; float: none; display: inline !important; background-color: rgb(153, 204, 255);&quot;&gt;Bank&lt;/span&gt;" style="text;whiteSpace=wrap;html=1;fillColor=#99CCFF;" parent="1" vertex="1">
          <mxGeometry x="430" y="610" width="30" height="20" as="geometry" />
        </mxCell>
        <mxCell id="C1IyReGumWcxW7wr3i9b-63" value="" style="group;fillColor=#99CCFF;" parent="1" vertex="1" connectable="0">
          <mxGeometry x="620" y="600" width="100" height="40" as="geometry" />
        </mxCell>
        <mxCell id="C1IyReGumWcxW7wr3i9b-15" value="" style="rounded=0;whiteSpace=wrap;html=1;fillColor=#99CCFF;" parent="C1IyReGumWcxW7wr3i9b-63" vertex="1">
          <mxGeometry width="100" height="40" as="geometry" />
        </mxCell>
        <mxCell id="C1IyReGumWcxW7wr3i9b-21" value="&lt;span style=&quot;color: rgb(0, 0, 0); font-family: Helvetica; font-size: 12px; font-style: normal; font-variant-ligatures: normal; font-variant-caps: normal; font-weight: 400; letter-spacing: normal; orphans: 2; text-align: center; text-indent: 0px; text-transform: none; widows: 2; word-spacing: 0px; -webkit-text-stroke-width: 0px; white-space: normal; text-decoration-thickness: initial; text-decoration-style: initial; text-decoration-color: initial; float: none; display: inline !important; background-color: rgb(153, 204, 255);&quot;&gt;Database&lt;/span&gt;" style="text;whiteSpace=wrap;html=1;fillColor=#99CCFF;" parent="C1IyReGumWcxW7wr3i9b-63" vertex="1">
          <mxGeometry x="25" y="10" width="50" height="20" as="geometry" />
        </mxCell>
        <mxCell id="C1IyReGumWcxW7wr3i9b-18" value="" style="rounded=0;whiteSpace=wrap;html=1;fillColor=#99CCFF;" parent="1" vertex="1">
          <mxGeometry x="880" y="600" width="100" height="40" as="geometry" />
        </mxCell>
        <mxCell id="C1IyReGumWcxW7wr3i9b-22" value="&lt;span style=&quot;color: rgb(0, 0, 0); font-family: Helvetica; font-size: 12px; font-style: normal; font-variant-ligatures: normal; font-variant-caps: normal; font-weight: 400; letter-spacing: normal; orphans: 2; text-align: center; text-indent: 0px; text-transform: none; widows: 2; word-spacing: 0px; -webkit-text-stroke-width: 0px; white-space: normal; text-decoration-thickness: initial; text-decoration-style: initial; text-decoration-color: initial; float: none; display: inline !important; background-color: rgb(153, 204, 255);&quot;&gt;UserProfile&lt;/span&gt;" style="text;whiteSpace=wrap;html=1;fillColor=#99CCFF;" parent="1" vertex="1">
          <mxGeometry x="900" y="608" width="60" height="20" as="geometry" />
        </mxCell>
        <mxCell id="C1IyReGumWcxW7wr3i9b-66" value="" style="edgeStyle=elbowEdgeStyle;fontSize=12;html=1;endArrow=open;endFill=0;rounded=0;exitX=0;exitY=0.75;exitDx=0;exitDy=0;dashed=1;" parent="1" target="C1IyReGumWcxW7wr3i9b-4" edge="1">
          <mxGeometry width="160" relative="1" as="geometry">
            <mxPoint x="240" y="434.5" as="sourcePoint" />
            <mxPoint x="-110.5" y="435" as="targetPoint" />
            <Array as="points">
              <mxPoint y="435" />
            </Array>
          </mxGeometry>
        </mxCell>
        <mxCell id="C1IyReGumWcxW7wr3i9b-67" value="Error: Bank Account with this ID does not exist" style="edgeLabel;html=1;align=center;verticalAlign=middle;resizable=0;points=[];" parent="C1IyReGumWcxW7wr3i9b-66" vertex="1" connectable="0">
          <mxGeometry x="-0.1377" y="-1" relative="1" as="geometry">
            <mxPoint x="-37" as="offset" />
          </mxGeometry>
        </mxCell>
        <mxCell id="C1IyReGumWcxW7wr3i9b-68" value="" style="endArrow=none;html=1;rounded=0;entryX=1;entryY=0.313;entryDx=0;entryDy=0;entryPerimeter=0;fillColor=#dae8fc;strokeColor=#6c8ebf;exitX=-0.002;exitY=0.325;exitDx=0;exitDy=0;exitPerimeter=0;" parent="1" source="C1IyReGumWcxW7wr3i9b-60" target="C1IyReGumWcxW7wr3i9b-60" edge="1">
          <mxGeometry width="50" height="50" relative="1" as="geometry">
            <mxPoint x="-130" y="452" as="sourcePoint" />
            <mxPoint x="190" y="452" as="targetPoint" />
          </mxGeometry>
        </mxCell>
        <mxCell id="C1IyReGumWcxW7wr3i9b-69" value="[Existing account found]" style="text;html=1;align=center;verticalAlign=middle;resizable=0;points=[];autosize=1;strokeColor=none;fillColor=none;" parent="1" vertex="1">
          <mxGeometry x="275" y="450" width="150" height="30" as="geometry" />
        </mxCell>
        <mxCell id="C1IyReGumWcxW7wr3i9b-70" value="[No existing account found]" style="text;html=1;align=center;verticalAlign=middle;resizable=0;points=[];autosize=1;strokeColor=none;fillColor=none;" parent="1" vertex="1">
          <mxGeometry x="265" y="400" width="170" height="30" as="geometry" />
        </mxCell>
        <mxCell id="C1IyReGumWcxW7wr3i9b-71" value="" style="edgeStyle=elbowEdgeStyle;fontSize=12;html=1;endArrow=blockThin;endFill=1;rounded=0;entryX=0;entryY=0;entryDx=0;entryDy=0;exitX=1;exitY=0;exitDx=0;exitDy=0;" parent="1" source="C1IyReGumWcxW7wr3i9b-75" target="C1IyReGumWcxW7wr3i9b-72" edge="1">
          <mxGeometry width="160" relative="1" as="geometry">
            <mxPoint x="280" y="482" as="sourcePoint" />
            <mxPoint x="620" y="480" as="targetPoint" />
          </mxGeometry>
        </mxCell>
        <mxCell id="C1IyReGumWcxW7wr3i9b-73" value="UPDATE bank_accounts&amp;nbsp;" style="edgeLabel;html=1;align=center;verticalAlign=middle;resizable=0;points=[];" parent="C1IyReGumWcxW7wr3i9b-71" vertex="1" connectable="0">
          <mxGeometry x="0.275" y="-2" relative="1" as="geometry">
            <mxPoint x="-57" as="offset" />
          </mxGeometry>
        </mxCell>
        <mxCell id="C1IyReGumWcxW7wr3i9b-74" value="return (account updated in database)" style="html=1;verticalAlign=bottom;endArrow=open;dashed=1;endSize=8;curved=0;rounded=0;exitX=0;exitY=1;exitDx=0;exitDy=0;entryX=1;entryY=1;entryDx=0;entryDy=0;" parent="1" source="C1IyReGumWcxW7wr3i9b-72" target="C1IyReGumWcxW7wr3i9b-75" edge="1">
          <mxGeometry relative="1" as="geometry">
            <mxPoint x="400" y="480" as="sourcePoint" />
            <mxPoint x="390" y="520" as="targetPoint" />
          </mxGeometry>
        </mxCell>
        <mxCell id="C1IyReGumWcxW7wr3i9b-76" value="return (Bank account updated successfully)" style="html=1;verticalAlign=bottom;endArrow=open;dashed=1;endSize=8;curved=0;rounded=0;exitX=-0.067;exitY=0.922;exitDx=0;exitDy=0;exitPerimeter=0;" parent="1" source="C1IyReGumWcxW7wr3i9b-26" target="C1IyReGumWcxW7wr3i9b-4" edge="1">
          <mxGeometry relative="1" as="geometry">
            <mxPoint x="250" y="480" as="sourcePoint" />
            <mxPoint x="170" y="480" as="targetPoint" />
          </mxGeometry>
        </mxCell>
      </root>
    </mxGraphModel>
  </diagram>
</mxfile>
